<svg width="14" height="12" viewBox="0 0 14 12" fill="none" xmlns="http://www.w3.org/2000/svg">
<path d="M13.1033 0.666791C13.0481 0.660549 12.9924 0.660549 12.9372 0.666791H1.58877C1.51604 0.66802 1.44379 0.679979 1.37396 0.702347L7.23055 7.0979L13.1033 0.666791Z" fill="#E8C300"/>
<path d="M13.7032 1.28418L7.80202 7.72862C7.65015 7.89418 7.4447 7.98711 7.23055 7.98711C7.0164 7.98711 6.81095 7.89418 6.65908 7.72862L0.810598 1.33307C0.792618 1.40553 0.783085 1.4802 0.782227 1.55529V10.4442C0.782227 10.6799 0.867629 10.906 1.01965 11.0727C1.17166 11.2394 1.37784 11.3331 1.59283 11.3331H12.9412C13.1562 11.3331 13.3624 11.2394 13.5144 11.0727C13.6664 10.906 13.7518 10.6799 13.7518 10.4442V1.55529C13.7486 1.46269 13.7322 1.37122 13.7032 1.28418V1.28418ZM2.14809 10.4442H1.58472V9.80862L4.53125 6.60418L5.10273 7.23085L2.14809 10.4442ZM12.9331 10.4442H12.3657L9.41106 7.23085L9.98254 6.60418L12.9291 9.80862L12.9331 10.4442Z" fill="#E8C300"/>
</svg>
