<svg width="10" height="11" viewBox="0 0 10 11" fill="none" xmlns="http://www.w3.org/2000/svg">
<path d="M8.99236 9.14688L7.70664 10.6853C7.51685 10.9201 7.26529 10.9996 7.0203 11C5.93685 10.9608 4.91274 10.3189 4.07188 9.65969C2.69167 8.4485 1.42526 6.94668 0.630445 5.13179C0.325604 4.37075 -0.0320839 3.39971 0.00209048 2.55025C0.00513783 2.2307 0.0765264 1.91708 0.263099 1.7111L1.54881 0.161011C1.81579 -0.112916 2.07398 -0.0182063 2.24483 0.300867L3.27918 2.6668C3.38805 2.94709 3.3256 3.24741 3.16317 3.44769L2.68949 4.01877C2.66025 4.06709 2.64163 4.12209 2.64116 4.18195C2.8228 5.03007 3.37307 5.81177 3.85919 6.34974C4.3453 6.88771 4.86782 7.61655 5.54608 7.7891C5.62991 7.8173 5.7326 7.82721 5.79259 7.75996L6.34362 7.08398C6.53357 6.91032 6.80783 6.82543 7.01062 6.96743H7.02029L8.88601 8.29608C9.1599 8.50317 9.18846 8.90339 8.99236 9.14688Z" fill="#E8C300"/>
</svg>
